<svg aria-hidden="true" style="position: absolute; width: 0; height: 0; overflow: hidden;" version="1.1" xmlns="http://www.w3.org/2000/svg" xmlns:xlink="http://www.w3.org/1999/xlink">
    <defs>
        <symbol id="icon-book" viewBox="0 0 32 32">
            <path stroke-linejoin="round" stroke-linecap="round" stroke-miterlimit="4" stroke-width="3" d="M29.333 8.267c0-1.493 0-2.24-0.291-2.811-0.256-0.502-0.664-0.91-1.165-1.165-0.571-0.291-1.317-0.291-2.811-0.291h-0.533c-2.987 0-4.48 0-5.621 0.581-1.004 0.511-1.819 1.327-2.331 2.331-0.581 1.141-0.581 2.634-0.581 5.621v15.467l0.133-0.2c0.926-1.389 1.389-2.084 2.001-2.587 0.542-0.445 1.166-0.779 1.837-0.983 0.758-0.23 1.593-0.23 3.262-0.23h1.833c1.494 0 2.24 0 2.811-0.291 0.502-0.256 0.91-0.664 1.165-1.165 0.291-0.57 0.291-1.317 0.291-2.811v-11.467z"></path>
            <path stroke-linejoin="round" stroke-linecap="round" stroke-miterlimit="4" stroke-width="3" d="M2.667 8.267c0-1.493 0-2.24 0.291-2.811 0.256-0.502 0.664-0.91 1.165-1.165 0.57-0.291 1.317-0.291 2.811-0.291h0.533c2.987 0 4.48 0 5.621 0.581 1.004 0.511 1.819 1.327 2.331 2.331 0.581 1.141 0.581 2.634 0.581 5.621v15.467l-0.133-0.2c-0.926-1.389-1.389-2.084-2.001-2.587-0.542-0.445-1.166-0.779-1.837-0.983-0.758-0.23-1.593-0.23-3.262-0.23h-1.833c-1.493 0-2.24 0-2.811-0.291-0.502-0.256-0.91-0.664-1.165-1.165-0.291-0.57-0.291-1.317-0.291-2.811v-11.467z"></path>
        </symbol>
        <symbol id="icon-chevron" viewBox="0 0 32 32">
            <path stroke-linejoin="round" stroke-linecap="round" stroke-miterlimit="4" stroke-width="3.2" d="M8 12l8 8 8-8"></path>
        </symbol>
        <symbol id="icon-dot" viewBox="0 0 32 32">
            <path fill="#fff" style="fill: var(--color1, #fff)" d="M32 16c0 8.837-7.163 16-16 16s-16-7.163-16-16c0-8.837 7.163-16 16-16s16 7.163 16 16z"></path>
            <path fill="#38cd3e" style="fill: var(--color2, #38cd3e)" d="M26.667 16c0 5.891-4.776 10.667-10.667 10.667s-10.667-4.776-10.667-10.667c0-5.891 4.776-10.667 10.667-10.667s10.667 4.776 10.667 10.667z"></path>
        </symbol>
        <symbol id="icon-user" viewBox="0 0 32 32">
            <path d="M16 30.75c-8.15 0-14.75-6.6-14.75-14.75s6.6-14.75 14.75-14.75c8.15 0 14.75 6.6 14.75 14.75s-6.6 14.75-14.75 14.75v0zM19.238 21.313l0.587-0.512c0 0 0.15-1.35 0.413-1.837 0.575-1.1 1.175-2.95 1.175-2.95s0.587-0.425 0.587-1.175c0-0.75-0.587-1.175-0.587-1.175s0.225-2.088 0.225-3.537c0-3.050-1.913-4.725-5.35-4.725s-5.95 1.425-5.95 4.725c0 1.45 0.463 3.537 0.463 3.537s-0.588 0.425-0.588 1.175 0.588 1.175 0.588 1.175 0.688 2.137 1.175 2.95c0.287 0.475 0.412 1.837 0.412 1.837l0.588 0.512c0 0 0.275 2.988-0.588 3.538-0.787 0.488-4.137 1.15-4.95 1.625 0.050 0.050 3.638 3.15 8.688 3.15s8.637-3.113 8.637-3.163c-0.875-0.475-4.15-1.113-4.925-1.613-0.887-0.55-0.6-3.538-0.6-3.538v0z"></path>
        </symbol>
        <symbol id="icon-heart" viewBox="0 0 32 32">
            <path stroke-linejoin="round" stroke-linecap="round" stroke-miterlimit="4" stroke-width="2.4615" d="M27.787 6.147c-0.681-0.681-1.49-1.222-2.379-1.591s-1.844-0.559-2.807-0.559-1.917 0.19-2.807 0.559c-0.89 0.369-1.699 0.909-2.38 1.591l-1.413 1.413-1.413-1.413c-1.376-1.376-3.241-2.148-5.187-2.148s-3.811 0.773-5.187 2.148c-1.376 1.376-2.148 3.241-2.148 5.187s0.773 3.811 2.148 5.187l11.787 11.787 11.787-11.787c0.681-0.681 1.222-1.49 1.591-2.379s0.559-1.844 0.559-2.807-0.19-1.917-0.559-2.807c-0.369-0.89-0.909-1.699-1.591-2.38z"></path>
        </symbol>
        <symbol id="icon-log-in" viewBox="0 0 32 32">
            <path stroke-linejoin="round" stroke-linecap="round" stroke-miterlimit="4" stroke-width="3.2" d="M20 4h1.6c2.24 0 3.36 0 4.216 0.436 0.753 0.383 1.364 0.995 1.748 1.748 0.436 0.856 0.436 1.976 0.436 4.216v11.2c0 2.24 0 3.36-0.436 4.216-0.384 0.753-0.995 1.364-1.748 1.748-0.856 0.436-1.976 0.436-4.216 0.436h-1.6"></path>
            <path stroke-linejoin="round" stroke-linecap="round" stroke-miterlimit="4" stroke-width="3.2" d="M13.333 9.333l6.667 6.667M20 16l-6.667 6.667M20 16h-16"></path>
        </symbol>
        <symbol id="icon-star" viewBox="0 0 32 32">
            <path stroke-linejoin="miter" stroke-linecap="butt" stroke-miterlimit="4" stroke-width="2.4" d="M19.6 9.395c0.318 0.603 0.898 1.024 1.57 1.141l7.6 1.313-5.375 5.535c-0.475 0.489-0.697 1.171-0.6 1.846l1.098 7.635-6.922-3.402-0.234-0.1c-0.476-0.169-0.996-0.169-1.473 0l-0.234 0.1-6.924 3.402 1.1-7.635c0.097-0.675-0.125-1.357-0.6-1.846l-5.377-5.535 7.602-1.313c0.672-0.116 1.252-0.538 1.57-1.141l3.6-6.822 3.6 6.822z"></path>
        </symbol>
        <symbol id="icon-ukraine" viewBox="0 0 32 32">
            <path fill="#ffda44" style="fill: var(--color3, #ffda44)" d="M16 32c8.837 0 16-7.163 16-16s-7.163-16-16-16c-8.837 0-16 7.163-16 16s7.163 16 16 16z"></path>
            <path fill="#338af3" style="fill: var(--color4, #338af3)" d="M0 16c0-8.836 7.163-16 16-16s16 7.163 16 16z"></path>
        </symbol>
        <symbol id="icon-close" viewBox="0 0 32 32">
            <path stroke-linejoin="round" stroke-linecap="round" stroke-miterlimit="4" stroke-width="2.5" d="M24 8l-16 16"></path>
            <path stroke-linejoin="round" stroke-linecap="round" stroke-miterlimit="4" stroke-width="2.5" d="M8 8l16 16"></path>
        </symbol>
        <symbol id="icon-search" viewBox="0 0 32 32">
            <path d="M14.15 5.4c-5.625 0-10.2 4.625-10.2 10.3 0 5.7 4.575 10.3 10.2 10.3 2.575 0 4.925-0.975 6.725-2.575l0.575 0.575-0.525 0.55c-0.3 0.3-0.3 0.775 0 1.075l4.5 4.55c0.15 0.15 0.325 0.225 0.525 0.225s0.4-0.075 0.525-0.225l2-2.025c0.275-0.3 0.275-0.775-0.025-1.050l-4.5-4.55c-0.15-0.15-0.325-0.225-0.525-0.225s-0.4 0.075-0.525 0.225l-0.525 0.55-0.575-0.6c1.575-1.825 2.55-4.2 2.55-6.8 0-5.675-4.575-10.3-10.2-10.3zM14.15 6.925c4.8 0 8.7 3.95 8.7 8.8s-3.9 8.775-8.7 8.775c-4.8 0-8.7-3.925-8.7-8.775s3.9-8.8 8.7-8.8zM14.175 10.050c-2.375 0-4.5 1.525-5.3 3.775-0.125 0.325 0.050 0.725 0.4 0.825 0.075 0.025 0.15 0.050 0.225 0.050 0.275 0 0.525-0.175 0.625-0.45 0.6-1.725 2.25-2.9 4.050-2.9 0.35 0 0.65-0.3 0.65-0.65s-0.3-0.65-0.65-0.65zM9.425 16.225c-0.35 0-0.65 0.275-0.65 0.65v0.1c0.025 0.35 0.3 0.65 0.675 0.65 0.35 0 0.65-0.3 0.65-0.65v-0.075c0-0.375-0.275-0.675-0.65-0.675h-0.025zM23.45 24.15l3.45 3.5-0.95 0.95-3.45-3.5 0.95-0.95z"></path>
        </symbol>
        <symbol id="icon-burger" viewBox="0 0 32 32">
            <path d="M5.334 23.027v-1.333h21.333v1.333h-21.333zM5.334 16.667v-1.333h21.333v1.333h-21.333zM5.334 10.307v-1.333h21.333v1.333h-21.333z"></path>
        </symbol>
        <symbol id="icon-eye-off" viewBox="0 0 32 32">
            <path stroke-linejoin="round" stroke-linecap="round" stroke-miterlimit="4" stroke-width="3.2" d="M23.92 23.92c-2.279 1.737-5.055 2.7-7.92 2.747-9.333 0-14.667-10.667-14.667-10.667 1.659-3.091 3.959-5.791 6.747-7.92M13.2 5.653c0.918-0.215 1.857-0.322 2.8-0.32 9.333 0 14.667 10.667 14.667 10.667-0.809 1.514-1.775 2.94-2.88 4.253M18.827 18.827c-0.366 0.393-0.808 0.708-1.298 0.927s-1.020 0.336-1.557 0.346-1.071-0.089-1.569-0.291c-0.498-0.201-0.951-0.5-1.33-0.88s-0.679-0.832-0.88-1.33c-0.201-0.498-0.3-1.032-0.29-1.569s0.127-1.067 0.346-1.557 0.534-0.932 0.927-1.298"></path>
            <path stroke-linejoin="round" stroke-linecap="round" stroke-miterlimit="4" stroke-width="3.2" d="M1.334 1.333l29.333 29.333"></path>
        </symbol>
        <symbol id="icon-eye-on" viewBox="0 0 32 32">
            <path stroke-linejoin="round" stroke-linecap="round" stroke-miterlimit="4" stroke-width="3.2" d="M16 6.667c9.333 0 14.667 10.667 14.667 10.667s-5.333 10.667-14.667 10.667c-9.333 0-14.667-10.667-14.667-10.667s5.333-10.667 14.667-10.667z"></path>
            <path stroke-linejoin="round" stroke-linecap="round" stroke-miterlimit="4" stroke-width="3.2" d="M16 21.333c2.946 0 5.333-2.388 5.333-5.333s-2.388-5.333-5.333-5.333c-2.946 0-5.333 2.388-5.333 5.333s2.388 5.333 5.333 5.333z"></path>
        </symbol>
    </defs>
</svg>